<svg width="16" height="16" viewBox="0 0 16 16" fill="none" xmlns="http://www.w3.org/2000/svg">
<g id="editing 1" clip-path="url(#clip0_80_627)">
<g id="Group">
<g id="Group_2">
<path id="Vector" d="M9.07065 10.0367C8.92651 10.1808 8.74839 10.2908 8.55535 10.3552L6.69087 10.9767C6.55631 11.0216 6.41598 11.0444 6.274 11.0444C5.92183 11.0444 5.59074 10.9072 5.34175 10.6582C4.98635 10.3027 4.86436 9.78579 5.02329 9.30904L5.64479 7.44465C5.7091 7.25155 5.81926 7.07331 5.96325 6.92932L9.99025 2.90234H2.11133C1.22284 2.90234 0.5 3.62519 0.5 4.51367V13.8887C0.5 14.7772 1.22284 15.5 2.11133 15.5H11.4863C12.3748 15.5 13.0977 14.7772 13.0977 13.8887V6.00975L9.07065 10.0367Z" fill="#0194FF"/>
</g>
<path id="Vector_2" d="M6.58469 7.55077C6.53644 7.59902 6.50011 7.65782 6.47855 7.72254L5.85704 9.58696C5.80439 9.74487 5.8455 9.91895 5.96318 10.0367C6.0809 10.1544 6.25498 10.1955 6.41289 10.1428L8.27734 9.52134C8.34209 9.49977 8.40086 9.46345 8.44911 9.4152L13.9389 3.92546L12.0745 2.06104L6.58469 7.55077Z" fill="#0194FF"/>
<path id="Vector_3" d="M14.4567 0.714275C14.1706 0.42825 13.7069 0.42825 13.4209 0.714275L12.6958 1.43934L14.5603 3.3038L15.2853 2.57873C15.5713 2.2927 15.5713 1.82896 15.2853 1.54294L14.4567 0.714275Z" fill="#0194FF"/>
</g>
</g>
<defs>
<clipPath id="clip0_80_627">
<rect width="15" height="15" fill="white" transform="translate(0.5 0.5)"/>
</clipPath>
</defs>
</svg>
